<?xml version="1.0" encoding="UTF-8" standalone="no"?>
<svg width="87px" height="87px" viewBox="0 0 87 87" version="1.1" xmlns="http://www.w3.org/2000/svg" xmlns:xlink="http://www.w3.org/1999/xlink">
    <!-- Generator: Sketch 39.1 (31720) - http://www.bohemiancoding.com/sketch -->
    <title>Page 1</title>
    <desc>Created with Sketch.</desc>
    <defs>
        <polygon id="path-1" points="0 86.418 86.417 86.418 86.417 0 0 0"></polygon>
    </defs>
    <g id="Page-1" stroke="none" stroke-width="1" fill="none" fill-rule="evenodd">
        <g>
            <path d="M39.7783,36.7237 L35.5833,36.7237 L35.5833,40.6307 L34.2693,40.6307 L34.2693,36.7237 L30.2173,36.7237 L30.2173,35.4637 L34.2693,35.4637 L34.2693,32.7087 L30.9923,32.7087 L30.9923,31.4667 L34.2693,31.4667 L34.2693,28.9097 L30.5233,28.9097 L30.5233,27.6667 L32.6123,27.6667 C32.3423,26.8387 31.7123,25.6327 31.1183,24.7327 L32.1623,24.2457 C32.8463,25.1647 33.5313,26.4067 33.8003,27.2167 L32.9363,27.6667 L36.9693,27.6667 L36.0333,27.2527 C36.5743,26.4067 37.2213,25.0747 37.5823,24.1387 L38.9323,24.6417 C38.3743,25.6867 37.7083,26.8747 37.1323,27.6667 L39.5083,27.6667 L39.5083,28.9097 L35.5833,28.9097 L35.5833,31.4667 L38.9683,31.4667 L38.9683,32.7087 L35.5833,32.7087 L35.5833,35.4637 L39.7783,35.4637 L39.7783,36.7237 L39.7783,36.7237 Z M26.7243,27.0187 C26.4723,26.3707 25.8963,25.3627 25.4103,24.6237 L26.4193,24.1017 C26.9403,24.8407 27.5353,25.7767 27.7873,26.4067 L26.7243,27.0187 L26.7243,27.0187 Z M25.2663,38.3987 L28.2733,38.3987 L28.2733,35.4277 L25.2663,35.4277 L25.2663,38.3987 L25.2663,38.3987 Z M24.1323,32.9787 L29.2813,32.9787 L29.2813,31.9167 L24.1323,31.9167 L24.1323,32.9787 L24.1323,32.9787 Z M24.1323,30.6387 L29.2813,30.6387 L29.2813,29.5767 L24.1323,29.5767 L24.1323,30.6387 L24.1323,30.6387 Z M29.4433,39.5147 L25.2663,39.5147 L25.2663,40.3607 L24.1143,40.3607 L24.1143,34.3107 L29.4433,34.3107 L29.4433,39.5147 L29.4433,39.5147 Z M23.3933,28.3157 L29.8933,28.3157 L29.8933,27.2167 L23.3933,27.2167 L23.3933,28.3157 L23.3933,28.3157 Z" id="Fill-1" fill="#FFFFFF"></path>
            <mask id="mask-2" fill="white">
                <use xlink:href="#path-1"></use>
            </mask>
            <g id="Clip-4"></g>
            <path d="M57.183,37.931 L59.668,37.931 L59.668,32.871 L57.183,32.871 L57.183,37.931 Z M57.183,31.61 L59.668,31.61 L59.668,26.443 L57.183,26.443 L57.183,31.61 Z M53.618,37.93 L55.959,37.93 L55.959,32.87 L53.618,32.87 L53.618,37.93 Z M53.618,31.61 L55.959,31.61 L55.959,26.443 L53.618,26.443 L53.618,31.61 Z M60.946,25.11 L60.946,40.199 L59.668,40.199 L59.668,39.19 L53.618,39.19 L53.618,40.361 L52.376,40.361 L52.376,25.11 L60.946,25.11 Z M50.539,35.139 C50.971,36.256 51.421,37.678 51.619,38.596 L50.629,38.939 C50.467,37.984 50.017,36.544 49.603,35.445 L50.539,35.139 Z M48.595,35.607 C48.828,36.796 49.045,38.362 49.116,39.407 L48.072,39.641 C48.036,38.578 47.838,37.012 47.622,35.806 L48.595,35.607 Z M44.886,29.702 C45.191,29.63 45.479,29.251 45.857,28.711 C46.235,28.189 47.496,26.119 48.234,24.192 L49.387,24.678 C48.595,26.371 47.622,28.117 46.632,29.468 L48.559,29.288 C49.026,28.513 49.513,27.649 49.909,26.821 L50.989,27.451 C49.818,29.576 48.396,31.718 46.938,33.429 L50.107,32.997 C49.891,32.367 49.639,31.754 49.404,31.196 L50.341,30.872 C50.899,31.988 51.421,33.429 51.602,34.311 L50.593,34.707 C50.557,34.491 50.485,34.221 50.413,33.951 C46.29,34.581 45.731,34.725 45.39,34.905 C45.336,34.635 45.155,34.059 45.012,33.735 C45.371,33.663 45.785,33.213 46.308,32.528 C46.596,32.205 47.19,31.412 47.856,30.404 C45.93,30.62 45.533,30.71 45.264,30.854 C45.228,30.602 45.029,30.008 44.886,29.702 L44.886,29.702 Z M46.758,35.842 C46.578,37.408 46.235,39.083 45.857,40.199 C45.624,40.073 45.119,39.893 44.831,39.821 C45.245,38.705 45.533,37.12 45.695,35.68 L46.758,35.842 Z" id="Fill-3" fill="#FFFFFF" mask="url(#mask-2)"></path>
            <path d="M38.6807,60.4488 C38.6807,61.2948 38.4827,61.7268 37.8877,61.9608 C37.2937,62.1958 36.2847,62.2128 34.7547,62.2128 C34.7017,61.8168 34.4857,61.1688 34.2697,60.7908 C35.4567,60.8448 36.5557,60.8448 36.8977,60.8268 C37.2217,60.8088 37.3297,60.7188 37.3297,60.4308 L37.3297,51.0858 L32.7387,51.0858 C33.4407,53.8228 34.7907,55.8028 37.1507,56.8118 C36.8437,57.0818 36.4117,57.6218 36.1957,57.9818 C33.8007,56.7938 32.3967,54.7408 31.6407,52.0038 C30.8837,54.8128 29.4257,56.8478 26.9947,58.1078 C26.7967,57.8018 26.3647,57.2978 26.0767,57.0638 C28.5077,55.8748 30.0017,53.9308 30.6317,51.0858 L25.9687,51.0858 L25.9687,62.1778 L24.6357,62.1778 L24.6357,49.7718 L31.1907,49.7718 C31.0997,49.1408 31.0287,48.4748 30.9927,47.7908 L27.7507,47.7908 L27.7507,46.5848 L32.1257,46.5848 C32.1807,47.7188 32.2877,48.7818 32.4687,49.7718 L38.6807,49.7718 L38.6807,60.4488 Z" id="Fill-5" fill="#FFFFFF" mask="url(#mask-2)"></path>
            <path d="M55.6348,49.5015 C57.2738,50.4735 59.3438,51.9325 60.3338,52.9585 L59.3978,53.8405 C58.4258,52.8145 56.4088,51.2835 54.7518,50.2575 L55.6348,49.5015 Z M57.1118,56.1995 C55.7068,55.3165 54.4278,54.2725 53.2398,52.9765 C52.2138,54.1645 50.9528,55.2635 49.5848,56.1995 L57.1118,56.1995 Z M49.4948,60.4125 L56.8768,60.4125 L56.8768,57.4055 L49.4948,57.4055 L49.4948,60.4125 Z M51.4398,49.8975 C50.2508,51.4635 48.4328,52.9405 46.7938,53.8765 C46.5958,53.6245 46.1458,53.1025 45.8578,52.8685 C47.4598,52.0585 49.1528,50.7975 50.1978,49.4835 L51.4398,49.8975 Z M47.0458,50.6715 L45.7498,50.6715 L45.7498,47.4125 L52.7358,47.4125 C52.5378,46.9445 52.2678,46.3865 52.0158,45.9545 L53.3838,45.6295 C53.7078,46.1705 54.0858,46.8725 54.3018,47.4125 L60.6578,47.4125 L60.6578,50.6715 L59.3078,50.6715 L59.3078,48.6375 L47.0458,48.6375 L47.0458,50.6715 Z M54.2838,51.5715 C54.1758,51.7155 54.0688,51.8775 53.9428,52.0405 C55.9768,54.3445 58.5158,55.7495 61.3968,56.8835 C61.0898,57.1715 60.7308,57.6395 60.5318,58.0175 C59.7398,57.6755 58.9658,57.2795 58.2278,56.8655 L58.2278,62.1595 L56.8768,62.1595 L56.8768,61.6195 L49.4948,61.6195 L49.4948,62.2305 L48.1978,62.2305 L48.1978,57.0635 C47.4238,57.5135 46.6138,57.9095 45.7848,58.2335 C45.5878,57.9095 45.2448,57.4595 44.9398,57.1535 C48.2348,55.9295 51.4038,53.6965 53.1138,51.0495 L54.2838,51.5715 Z" id="Fill-6" fill="#FFFFFF" mask="url(#mask-2)"></path>
            <path d="M0.5283,43.209 C0.5283,19.637 19.6363,0.529 43.2083,0.529 C66.7793,0.529 85.8883,19.637 85.8883,43.209 C85.8883,66.781 66.7793,85.889 43.2083,85.889 C19.6363,85.889 0.5283,66.781 0.5283,43.209 L0.5283,43.209 Z" id="Stroke-7" stroke="#FFFFFF" stroke-width="1.057" mask="url(#mask-2)"></path>
        </g>
    </g>
</svg>