<?xml version="1.0" encoding="UTF-8" standalone="no"?>
<svg width="25px" height="24px" viewBox="0 0 25 24" version="1.1" xmlns="http://www.w3.org/2000/svg" xmlns:xlink="http://www.w3.org/1999/xlink">
    <!-- Generator: Sketch 39.1 (31720) - http://www.bohemiancoding.com/sketch -->
    <title>Page 1</title>
    <desc>Created with Sketch.</desc>
    <defs></defs>
    <g id="Page-1" stroke="none" stroke-width="1" fill="none" fill-rule="evenodd" stroke-linecap="round" stroke-linejoin="round">
        <g stroke="#11337F" stroke-width="1.541">
            <g id="Group-5" transform="translate(0.000000, 0.122100)">
                <polyline id="Stroke-1" points="0.7705 0.6484 3.8775 2.0614 6.7035 16.7514 21.3945 16.7514"></polyline>
                <polyline id="Stroke-3" points="4.4121 4.8379 23.3711 4.8379 21.3941 13.9269 6.1611 13.9269"></polyline>
            </g>
            <path d="M9.5283,7.8111 L18.0043,7.8111" id="Stroke-6"></path>
            <path d="M9.5283,11.1978 L18.0043,11.1978" id="Stroke-7"></path>
            <g id="Group-12" transform="translate(8.000000, 18.122100)">
                <path d="M0.7324,2.5811 C0.7324,1.6711 1.4694,0.9321 2.3814,0.9321 C3.2924,0.9321 4.0294,1.6711 4.0294,2.5811 C4.0294,3.4921 3.2924,4.2291 2.3814,4.2291 C1.4694,4.2291 0.7324,3.4921 0.7324,2.5811 L0.7324,2.5811 Z" id="Stroke-8"></path>
                <path d="M7.6533,2.5811 C7.6533,1.6711 8.3913,0.9321 9.3013,0.9321 C10.2133,0.9321 10.9503,1.6711 10.9503,2.5811 C10.9503,3.4921 10.2133,4.2291 9.3013,4.2291 C8.3913,4.2291 7.6533,3.4921 7.6533,2.5811 L7.6533,2.5811 Z" id="Stroke-10"></path>
            </g>
        </g>
    </g>
</svg>